<svg id="Capa_1" enable-background="new 0 0 512.075 512.075" height="512" viewBox="0 0 512.075 512.075" width="512" xmlns="http://www.w3.org/2000/svg"><g><g id="Page-1_14_"><g id="_x30_15---Happy-Chat-Bot" transform="translate(0 -1)"><path id="Shape_83_" d="m82.478 27.109c-.057 10.998-6.996 20.782-17.356 24.472v23.17c-6.13 6.557-11.923 13.422-17.356 20.567v-43.737c-12.491-4.416-19.673-17.509-16.685-30.417s15.194-21.512 28.355-19.99 23.079 12.686 23.042 25.935z"/><path id="Shape_82_" d="m481.665 27.109c-.057 10.998-6.996 20.782-17.356 24.472v43.737c-5.433-7.145-11.226-14.01-17.356-20.567v-23.17c-12.491-4.416-19.673-17.509-16.685-30.417 2.988-12.907 15.193-21.512 28.354-19.99 13.161 1.522 23.08 12.686 23.043 25.935z"/><circle id="Oval_25_" cx="377.529" cy="287.448" r="26.034"/><path id="Shape_81_" d="m256.037 382.905c19.171 0 34.712-15.541 34.712-34.712h-69.424c.001 19.171 15.542 34.712 34.712 34.712z"/><circle id="Oval_24_" cx="134.546" cy="287.448" r="26.034"/><path id="Shape_80_" d="m256.037 9.753c-138.986 0-251.661 114.393-251.661 274.536 0 171.589 112.675 228.786 251.661 228.786s251.661-57.196 251.661-228.786c0-160.143-112.674-274.536-251.661-274.536zm-8.678 112.813h17.356c4.793 0 8.678 3.885 8.678 8.678s-3.885 8.678-8.678 8.678h-17.356c-4.793 0-8.678-3.885-8.678-8.678 0-4.792 3.886-8.678 8.678-8.678zm-17.355 26.034h52.068c4.793 0 8.678 3.885 8.678 8.678s-3.885 8.678-8.678 8.678h-52.068c-4.793 0-8.678-3.885-8.678-8.678s3.885-8.678 8.678-8.678zm121.491 295.051h-190.915c-71.891 0-130.169-58.279-130.169-130.169s58.278-130.17 130.169-130.17h190.915c71.891 0 130.169 58.279 130.169 130.169s-58.278 130.17-130.169 130.17z"/><path id="Shape_79_" d="m351.495 200.668h-190.915c-62.305 0-112.814 50.508-112.814 112.814s50.509 112.813 112.814 112.813h190.915c62.305 0 112.814-50.508 112.814-112.814s-50.509-112.813-112.814-112.813zm-216.949 130.17c-23.964 0-43.39-19.426-43.39-43.39s19.426-43.39 43.39-43.39 43.39 19.426 43.39 43.39c-.029 23.951-19.438 43.361-43.39 43.39zm121.491 69.423c-28.744-.029-52.039-23.323-52.068-52.068 0-9.585 7.771-17.356 17.356-17.356h69.424c9.585 0 17.356 7.771 17.356 17.356-.028 28.745-23.323 52.04-52.068 52.068zm121.492-69.423c-23.964 0-43.39-19.426-43.39-43.39s19.426-43.39 43.39-43.39 43.39 19.426 43.39 43.39c-.029 23.951-19.438 43.361-43.39 43.39z"/></g></g></g></svg>